<svg width="114" height="114" viewBox="0 0 114 114" fill="none" xmlns="http://www.w3.org/2000/svg">
<path d="M83.125 0.846924L64.375 19.4516L53.6875 8.75474L46.9375 15.5047L50.4531 19.0204L26.4344 43.0391C23.7053 45.783 22.1734 49.4957 22.1734 53.3657C22.1734 57.2357 23.7053 60.9483 26.4344 63.6922L35.0781 72.336L0.0625 107.197L6.8125 113.947L41.6687 78.9313L50.3125 87.5657C53.0564 90.2947 56.7691 91.8267 60.6391 91.8267C64.5091 91.8267 68.2217 90.2947 70.9656 87.5657L94.9891 63.5422L98.5047 67.0579L105.255 60.3079L94.5484 49.625L113.148 30.875L106.562 24.2844L87.8125 42.8938L71.1109 26.1875L89.7203 7.43755L83.125 0.846924ZM57.0484 25.5969L88.3984 56.9469L64.375 80.9797C62.5562 82.7938 58.7219 82.7938 56.9031 80.9797L33.0297 57.1016C31.2109 55.2829 31.2109 51.4485 33.0297 49.6297L57.0484 25.6063V25.5969Z" fill="#8B8B8B"/>
</svg>
