<svg width="114" height="126" viewBox="0 0 114 126" fill="none" xmlns="http://www.w3.org/2000/svg">
<path d="M113.25 56.75C113.25 41.8316 107.324 27.5242 96.7747 16.9752C86.2258 6.42632 71.9184 0.5 57 0.5C42.0816 0.5 27.7742 6.42632 17.2252 16.9752C6.67632 27.5242 0.75 41.8316 0.75 56.75C0.75 81.25 16.4375 102 38.25 109.75V125.5H50.75V112.625C54.9013 113.131 59.0987 113.131 63.25 112.625V125.5H75.75V109.75C97.5625 102 113.25 81.25 113.25 56.75ZM57 100.5C32.875 100.5 13.25 80.875 13.25 56.75C13.25 32.625 32.875 13 57 13C81.125 13 100.75 32.625 100.75 56.75C100.75 80.875 81.125 100.5 57 100.5Z" fill="#8B8B8B"/>
<path d="M32 31.75H82V44.25H32V31.75ZM61.6875 50.5L42.9375 69.25L50.75 77.0625L42.9375 84.875L52.3125 94.25L71.0625 75.5L63.25 67.6875L71.0625 59.875L61.6875 50.5Z" fill="#8B8B8B"/>
</svg>
