<svg width="25" height="31" viewBox="0 0 25 31" fill="none" xmlns="http://www.w3.org/2000/svg">
<path fill-rule="evenodd" clip-rule="evenodd" d="M2.74079 17.2709C3.59976 18.1823 5.78556 21.559 6.24986 23.25H18.7504C19.2147 21.5605 21.3978 18.1838 22.2567 17.2732C23.7246 15.7191 24.6486 13.8324 24.9193 11.8366C25.1865 9.84461 24.7869 7.82801 23.7684 6.02795C22.7403 4.21452 21.1417 2.69076 19.1575 1.63293C17.1559 0.564341 14.8518 -0.00095704 12.5019 1.21625e-06C10.1473 1.21625e-06 7.8401 0.565751 5.84627 1.63138C3.86162 2.68881 2.2624 4.2123 1.23359 6.02563C0.214534 7.82499 -0.185964 9.84102 0.0799765 11.8327C0.346951 13.8221 1.26931 15.7077 2.74079 17.2709V17.2709ZM13.393 6.2L8.03565 13.175H11.6072V17.825L16.9646 10.85H13.393V6.2Z" fill="white"/>
<path d="M6.24985 25.575C6.24985 25.3695 6.34392 25.1724 6.51137 25.027C6.67882 24.8817 6.90593 24.8 7.14274 24.8H17.8574C18.0943 24.8 18.3214 24.8817 18.4888 25.027C18.6563 25.1724 18.7503 25.3695 18.7503 25.575C18.7503 25.7806 18.6563 25.9777 18.4888 26.1231C18.3214 26.2684 18.0943 26.35 17.8574 26.35H7.14274C6.90593 26.35 6.67882 26.2684 6.51137 26.1231C6.34392 25.9777 6.24985 25.7806 6.24985 25.575ZM18.7503 27.9H6.24985V29.45C6.24985 29.8611 6.43799 30.2554 6.77289 30.5461C7.10779 30.8367 7.56201 31 8.03563 31H16.9646C17.4382 31 17.8924 30.8367 18.2273 30.5461C18.5622 30.2554 18.7503 29.8611 18.7503 29.45V27.9Z" fill="white"/>
</svg>
